<?xml version="1.0" encoding="utf-8"?>
<!-- Generator: Adobe Illustrator 23.1.0, SVG Export Plug-In . SVG Version: 6.00 Build 0)  -->
<svg version="1.1" id="Layer_1" xmlns="http://www.w3.org/2000/svg" xmlns:xlink="http://www.w3.org/1999/xlink" x="0px" y="0px"
	 viewBox="0 0 804.7 610.3" style="enable-background:new 0 0 804.7 610.3;" xml:space="preserve">
<style type="text/css">
	.st0{fill:#E6E6E6;}
	.st1{fill:#A0616A;}
	.st2{fill:#2F2E41;}
	.st3{fill:#575A89;}
	.st4{fill:#D1D1D1;}
	.st5{fill:#3F3B56;}
	.st6{fill:#1E1E2C;}
	.st7{fill:#FFFFFF;}
</style>
<g id="Group_42" transform="translate(-194 -123)">
	<ellipse id="Ellipse_218" class="st0" cx="911.4" cy="715.7" rx="76.3" ry="17.6"/>
	<path id="Path_1092" class="st1" d="M910.4,266.1v23l12,30l19-34v-26L910.4,266.1z"/>
	<path id="Path_1093" class="st1" d="M856.9,444.6l-3,22c0,0-7,24,3,24s10-26,10-26l2-15L856.9,444.6z"/>
	<path id="Path_1094" class="st1" d="M977.9,441.6l-3,22c0,0-7,24,3,24s10-26,10-26l2-15L977.9,441.6z"/>
	<path id="Path_1095" class="st2" d="M885.4,419.1l-4.7,1.3c0,0-12.3,79.7-13.3,121.7s-3,148-3,148h32l21-180l10,180h34
		c0,0,14-236,5-255S885.4,419.1,885.4,419.1z"/>
	<path id="Path_1096" class="st2" d="M866.4,688.1l-9,14c0,0-25,21-3,20s31-11,31-11v3l12-4l-2-22H866.4z"/>
	<path id="Path_1097" class="st2" d="M958.4,688.1l9,14c0,0,25,21,3,20s-31-11-31-11v3l-12-4l2-22H958.4z"/>
	<circle id="Ellipse_219" class="st1" cx="922.9" cy="249.6" r="22"/>
	<path id="Path_1098" class="st3" d="M921.4,304.1l-11-22.5l-5,11.5l-2,99l46-103l-8-8.8L921.4,304.1z"/>
	<path id="Path_1099" class="st4" d="M982.4,309.1L946,285.3c0,0-2.5,22.8-25.5,20.8s-12.3-19.3-12.3-19.3l-36.8,20.3l14,78l-6,45
		c0,0,54-6,66,3c7,5.3,15.3,8.8,24,10l-2-77L982.4,309.1z"/>
	<path id="Path_1100" class="st4" d="M971.4,313.1l6.9-6.7l5.1,3.7c0,0,5,6,9,24s2,98,2,98l-22-3l1-33l-9-44L971.4,313.1z"/>
	<path id="Path_1101" class="st4" d="M878.4,306.1l-3.8-0.8l-3.2,1.8c0,0-9,12-9,23s-9,105-9,105l20,9l14-71L878.4,306.1z"/>
	<path id="Path_1102" class="st3" d="M997.4,434.1c0,0-20-12-27-4s4,16,4,16S1005.4,458.1,997.4,434.1z"/>
	<path id="Path_1103" class="st3" d="M875.4,440.1c0,0-20-12-27-4s4,16,4,16S883.4,464.1,875.4,440.1z"/>
	<path id="Path_1104" class="st2" d="M942.2,233.5c0,0,5.8-11-6.9-12c0,0-11.5-7-20.7,1c0,0-8.1-2-10.4,4c0,0-1.2-3,2.3-5
		c0,0-8.1-2-8.1,8c0,0-3.5,10,0,19s4.6,10,4.6,10s-5.7-18.9,8.1-19.9s29.3-9.6,30.4,1.4c1.2,11,3.5,14,3.5,14S955.4,238,942.2,233.5
		z"/>
	<path id="Path_1105" class="st5" d="M462.3,647.3h-0.1c-5.1,0-10.3-0.2-15.4-0.5l0.1-1.3c5.1,0.3,10.2,0.5,15.3,0.5h0.1
		L462.3,647.3z M477.8,646.8l-0.1-1.3c5.1-0.3,10.3-0.8,15.4-1.4l0.2,1.3C488.2,646.1,483,646.5,477.8,646.8L477.8,646.8z
		 M431.3,645.5c-5.1-0.6-10.3-1.4-15.4-2.3l0.2-1.3c5,0.9,10.2,1.7,15.3,2.3L431.3,645.5z M508.6,643.1l-0.2-1.3
		c5-0.9,10.1-2,15.1-3.2l0.3,1.3C518.8,641.1,513.7,642.2,508.6,643.1L508.6,643.1z M400.8,639.9c-5-1.2-10-2.6-15-4.2l0.4-1.2
		c4.9,1.5,9.9,2.9,14.9,4.1L400.8,639.9z M538.8,635.7l-0.4-1.2c4.9-1.5,9.8-3.2,14.6-5l0.5,1.2
		C548.6,632.5,543.7,634.2,538.8,635.7L538.8,635.7z M371.1,630.7c-4.8-1.8-9.7-3.8-14.4-5.9l0.5-1.2c4.7,2.1,9.5,4.1,14.3,5.9
		L371.1,630.7z M567.8,624.7l-0.5-1.2c4.7-2.1,9.3-4.4,13.9-6.8l0.6,1.1C577.2,620.3,572.5,622.6,567.8,624.7L567.8,624.7z
		 M342.7,617.9c-4.6-2.4-9.1-5-13.5-7.6l0.7-1.1c4.4,2.7,8.9,5.2,13.5,7.6L342.7,617.9z M595.2,610.2l-0.7-1.1
		c4.4-2.7,8.7-5.5,13-8.4l0.7,1.1C604,604.7,599.6,607.6,595.2,610.2z M316.2,601.9c-4.2-2.9-8.5-6-12.5-9.2l0.8-1
		c4,3.2,8.2,6.2,12.5,9.2L316.2,601.9z M620.7,592.6l-0.8-1c4-3.2,8-6.5,11.9-9.9l0.9,1C628.8,586.1,624.8,589.4,620.7,592.6
		L620.7,592.6z M291.7,582.7c-3.9-3.4-7.7-7-11.3-10.6l0.9-0.9c3.6,3.6,7.4,7.2,11.3,10.6L291.7,582.7z M644,572l-0.9-0.9
		c3.6-3.6,7.2-7.4,10.6-11.3l1,0.9C651.2,564.5,647.6,568.3,644,572L644,572z M269.7,560.8c-3.4-3.9-6.8-7.9-10-11.9l1-0.8
		c3.2,4,6.5,8,9.9,11.9L269.7,560.8z M664.6,548.8l-1-0.8c3.2-4,6.3-8.2,9.2-12.4l1.1,0.7C670.9,540.5,667.8,544.7,664.6,548.8z
		 M250.6,536.4c-2.9-4.2-5.8-8.6-8.4-13l1.1-0.7c2.7,4.4,5.5,8.7,8.4,13L250.6,536.4z M682.2,523.2l-1.1-0.7
		c2.7-4.4,5.2-8.9,7.6-13.5l1.1,0.6C687.5,514.3,684.9,518.8,682.2,523.2z M234.5,509.8c-2.4-4.6-4.7-9.2-6.8-13.9l1.2-0.5
		c2.1,4.7,4.4,9.3,6.8,13.9L234.5,509.8z M696.7,495.7l-1.2-0.5c2.1-4.7,4.1-9.5,5.9-14.3l1.2,0.5
		C700.8,486.2,698.8,491,696.7,495.7L696.7,495.7z M221.7,481.6c-1.8-4.8-3.5-9.8-5.1-14.7l1.2-0.4c1.5,4.9,3.2,9.8,5.1,14.6
		L221.7,481.6z M707.7,466.6l-1.2-0.4c1.5-4.9,2.9-9.9,4.1-14.9l1.3,0.3C710.7,456.7,709.3,461.7,707.7,466.6L707.7,466.6z
		 M212.5,451.9c-1.2-5-2.3-10.1-3.3-15.2l1.3-0.2c0.9,5,2,10.1,3.2,15.1L212.5,451.9z M715.1,436.5l-1.3-0.2
		c0.9-5,1.7-10.2,2.3-15.3l1.3,0.2C716.8,426.3,716.1,431.4,715.1,436.5L715.1,436.5z M206.9,421.4c-0.6-5.1-1.1-10.3-1.4-15.5
		l1.3-0.1c0.3,5.1,0.8,10.3,1.4,15.4L206.9,421.4z M718.8,405.7l-1.3-0.1c0.3-5.1,0.5-10.3,0.5-15.4v-0.5h1.3v0.5
		C719.3,395.3,719.2,400.5,718.8,405.7z M206.3,390.4H205v-0.3c0-5.1,0.1-10.2,0.4-15.2l1.3,0.1c-0.3,5-0.4,10.1-0.4,15.2
		L206.3,390.4z M717.5,374.2c-0.3-5.1-0.8-10.3-1.4-15.4l1.3-0.2c0.6,5.1,1.1,10.3,1.4,15.5L717.5,374.2z M208.1,359.6l-1.3-0.2
		c0.6-5.1,1.4-10.3,2.3-15.4l1.3,0.2C209.5,349.4,208.7,354.5,208.1,359.6z M713.8,343.5c-0.9-5.1-2-10.1-3.3-15.1l1.3-0.3
		c1.2,5,2.3,10.1,3.3,15.2L713.8,343.5z M213.6,329.2l-1.3-0.3c1.2-5,2.6-10,4.1-15l1.2,0.4C216.2,319.2,214.8,324.2,213.6,329.2
		L213.6,329.2z M706.3,313.5c-1.5-4.9-3.2-9.8-5.1-14.6l1.2-0.5c1.8,4.8,3.6,9.8,5.1,14.7L706.3,313.5z M222.8,299.7l-1.2-0.5
		c1.8-4.8,3.8-9.7,5.9-14.4l1.2,0.5C226.6,290.1,224.6,294.9,222.8,299.7z M695.3,284.7c-2.1-4.7-4.4-9.3-6.8-13.9l1.1-0.6
		c2.4,4.6,4.7,9.2,6.8,13.9L695.3,284.7z M235.4,271.5l-1.1-0.6c2.4-4.6,5-9.1,7.6-13.5l1.1,0.7
		C240.4,262.4,237.8,266.9,235.4,271.5z M680.9,257.4c-2.7-4.4-5.5-8.7-8.4-12.9l1.1-0.7c2.9,4.2,5.8,8.6,8.5,13L680.9,257.4z
		 M251.4,245l-1.1-0.7c2.9-4.2,6-8.5,9.2-12.5l1,0.8C257.4,236.6,254.3,240.8,251.4,245z M663.3,232c-3.2-4-6.5-8-9.9-11.8l1-0.9
		c3.4,3.8,6.8,7.9,10,11.9L663.3,232z M270.5,220.7l-1-0.9c3.4-3.9,7-7.7,10.6-11.3l0.9,0.9C277.4,213,273.9,216.8,270.5,220.7z
		 M642.8,209c-3.6-3.6-7.4-7.2-11.3-10.6l0.9-1c3.9,3.4,7.7,7,11.3,10.6L642.8,209z M292.3,198.8l-0.9-1c3.8-3.4,7.9-6.8,11.9-10
		l0.8,1C300.1,192.1,296.1,195.4,292.3,198.8z M619.7,188.5c-4-3.2-8.2-6.2-12.5-9.2l0.7-1.1c4.3,2.9,8.5,6,12.5,9.2L619.7,188.5z
		 M316.6,179.7l-0.7-1.1c4.2-2.9,8.6-5.8,13-8.5l0.7,1.1C325.1,174,320.8,176.8,316.6,179.7L316.6,179.7z M594.2,171
		c-4.4-2.7-8.9-5.2-13.5-7.6l0.6-1.1c4.6,2.4,9.1,5,13.5,7.6L594.2,171z M343,163.7l-0.6-1.1c4.6-2.4,9.2-4.7,13.9-6.8l0.5,1.2
		C352.2,159,347.5,161.3,343,163.7L343,163.7z M566.8,156.6c-4.7-2.1-9.5-4.1-14.3-5.9l0.5-1.2c4.8,1.8,9.7,3.8,14.4,5.9
		L566.8,156.6z M371.1,151l-0.5-1.2c4.8-1.8,9.8-3.5,14.7-5.1l0.4,1.2C380.8,147.4,375.9,149.2,371.1,151L371.1,151z M537.9,145.7
		c-4.9-1.5-9.9-2.9-14.9-4.1l0.3-1.3c5,1.2,10,2.6,15,4.1L537.9,145.7z M400.5,141.8l-0.3-1.3c5-1.2,10.1-2.3,15.2-3.3l0.2,1.3
		C410.6,139.4,405.5,140.5,400.5,141.8L400.5,141.8z M507.9,138.4c-5-0.9-10.2-1.7-15.3-2.3l0.2-1.3c5.1,0.6,10.3,1.4,15.4,2.3
		L507.9,138.4z M430.9,136.2l-0.2-1.3c5.1-0.6,10.3-1.1,15.5-1.4l0.1,1.3C441.2,135.1,436,135.6,430.9,136.2L430.9,136.2z
		 M477.2,134.7c-5-0.3-10-0.4-15-0.4h-0.4V133h0.4c5,0,10.1,0.1,15.1,0.4L477.2,134.7z"/>
	<rect id="Rectangle_316" x="568.8" y="553.3" class="st6" width="152.8" height="114.6"/>
	<rect id="Rectangle_317" x="587.9" y="583.8" class="st7" width="114.6" height="7.6"/>
	<rect id="Rectangle_318" x="587.9" y="606.7" class="st7" width="114.6" height="7.6"/>
	<rect id="Rectangle_319" x="587.9" y="629.7" class="st7" width="114.6" height="7.6"/>
	<rect id="Rectangle_320" x="202" y="123" class="st0" width="106.7" height="80.1"/>
	<rect id="Rectangle_321" x="215.3" y="144.3" class="st7" width="80.1" height="5.3"/>
	<rect id="Rectangle_322" x="215.3" y="160.4" class="st7" width="80.1" height="5.3"/>
	<rect id="Rectangle_323" x="215.3" y="176.4" class="st7" width="80.1" height="5.3"/>
	<rect id="Rectangle_324" x="247.4" y="164.4" class="st6" width="106.7" height="80.1"/>
	<rect id="Rectangle_325" x="260.7" y="185.7" class="st7" width="80.1" height="5.3"/>
	<rect id="Rectangle_326" x="260.7" y="201.7" class="st7" width="80.1" height="5.3"/>
	<rect id="Rectangle_327" x="260.7" y="217.7" class="st7" width="80.1" height="5.3"/>
	<path id="Subtraction_1" class="st0" d="M608,499H317V281h291V499z M320,284v212h285V284H320z"/>
	<g id="Group_41" transform="translate(-9.234 -16.468)">
		<path class="st6" d="M471.6,351.5c-30.6,0-55.4,24.8-55.4,55.4c0,30.6,24.8,55.4,55.4,55.4c30.6,0,55.4-24.8,55.4-55.4
			C527.1,376.3,502.2,351.5,471.6,351.5z M494.7,411.1h-18.8v18.8c0,1.2-0.5,2.3-1.3,3.1c-0.8,0.8-1.9,1.3-3.1,1.3
			c-2.5,0-4.4-2-4.4-4.4v-18.8h-18.8c-1.2,0-2.3-0.5-3.1-1.3s-1.3-1.9-1.3-3.1c0-2.5,2-4.4,4.4-4.4h18.8v-18.8
			c0-1.2,0.5-2.3,1.3-3.1c0.8-0.8,1.9-1.3,3.1-1.3c2.4,0,4.4,2,4.4,4.4v18.8h18.8c1.2,0,2.3,0.5,3.1,1.3c0.8,0.8,1.3,1.9,1.3,3.1
			C499.1,409.1,497.1,411.1,494.7,411.1z"/>
	</g>
	<rect id="Rectangle_341" x="194" y="534" class="st0" width="106.7" height="80.1"/>
	<rect id="Rectangle_342" x="207.3" y="555.3" class="st7" width="80.1" height="5.3"/>
	<rect id="Rectangle_343" x="207.3" y="571.4" class="st7" width="80.1" height="5.3"/>
	<rect id="Rectangle_344" x="207.3" y="587.4" class="st7" width="80.1" height="5.3"/>
</g>
</svg>
